<?xml version="1.0" encoding="utf-8"?><!DOCTYPE svg PUBLIC "-//W3C//DTD SVG 1.1//EN" "http://www.w3.org/Graphics/SVG/1.1/DTD/svg11.dtd"><svg version="1.1" id="Contours" xmlns="http://www.w3.org/2000/svg" xmlns:xlink="http://www.w3.org/1999/xlink" x="0px" y="0px" width="2041.520020px" height="2041.520020px" viewBox="-0.000000 0.000013 2041.520020 790.304138" enable-background="new 0 0 2041.520020 2041.520020" xml:space="preserve" stroke="black" fill="none" stroke-linecap='round' stroke-linejoin='round'><path class="selected"  fill="#fdfefe" opacity="1.000000" stroke="none" 
 	d="
M399.185161 395.062590 C399.226871 402.171337 402.867373 408.697577 406.405851 414.863223 C477.952539 539.530258 549.499227 664.197293 621.045915 788.864328 C493.624099 789.008852 366.202283 789.153377 238.780467 789.297902 C234.299999 789.302983 229.647848 789.271446 225.599082 787.352563 C220.073464 784.733736 216.699059 779.129201 213.646753 773.830698 C144.819750 654.353782 75.992747 534.876866 7.165743 415.399950 C3.912650 409.752900 0.581239 403.862332 0.070104 397.365369 C-0.623978 388.542920 3.958440 380.263288 8.390841 372.603577 C76.164053 255.483634 143.937256 138.363688 211.710460 21.243742 C215.537852 14.629565 219.702714 7.681665 226.457036 4.107395 C232.346836 0.990618 239.317383 0.926110 245.981014 0.933834 C371.266678 1.079105 496.552342 1.224372 621.838005 1.369639 C550.073185 125.821836 478.308365 250.274032 406.543544 374.726229 C402.897259 381.049496 399.142333 387.763462 399.185161 395.062590 z"/><path class="selected"  fill="#fdfefe" opacity="1.000000" stroke="none" 
 	d="
M1640.591057 396.318113 C1641.085075 388.466587 1637.030968 381.130345 1633.105769 374.312477 C1561.621533 250.148047 1490.137298 125.983616 1418.653064 1.819186 C1547.331195 1.212853 1676.009326 0.606520 1804.687457 0.000187 C1815.684859 -0.051633 1823.206959 10.699037 1828.708853 20.221363 C1897.336710 138.998156 1965.964571 257.774944 2034.592433 376.551732 C2038.291199 382.953324 2042.116888 389.894688 2041.441996 397.257144 C2040.968558 402.421893 2038.317672 407.097562 2035.726844 411.590489 C1967.031777 530.719141 1898.336712 649.847793 1829.641646 768.976445 C1825.660084 775.881135 1821.334075 783.129107 1814.313650 786.902859 C1807.995176 790.299276 1800.476261 790.339009 1793.302907 790.297177 C1668.814921 789.571137 1544.326936 788.845106 1419.838951 788.119074 C1491.239761 663.191847 1562.640571 538.264620 1634.041380 413.337393 C1637.085785 408.010715 1640.205787 402.441304 1640.591058 396.318113 z"/><path class="selected"  fill="#fdfefe" opacity="1.000000" stroke="none" 
 	d="
M1299.091997 64.025094 C1310.212217 64.206799 1324.062391 66.299064 1327.410590 76.904811 C1329.820334 84.537912 1325.139707 92.425513 1320.667175 99.063852 C1190.418521 292.384877 1060.169869 485.705902 929.921217 679.026927 C1046.023936 683.463818 1162.206196 685.819198 1278.393342 686.091554 C1277.631933 665.025737 1279.109933 643.879685 1282.794406 623.124612 C1284.559646 613.180773 1288.960460 601.266274 1298.987172 600.057534 C1312.796850 598.392757 1318.166344 617.389073 1318.227973 631.298593 C1318.327141 653.683046 1318.426315 676.067497 1318.525488 698.451947 C1318.552042 704.445519 1318.471222 710.824383 1315.208179 715.851923 C1309.500760 724.645637 1297.138392 725.380044 1286.656894 725.174548 C1101.712009 721.548579 916.767125 717.922612 731.822240 714.296645 C724.469858 714.152497 716.122528 713.546280 711.503620 707.824044 C704.774361 699.487355 710.703771 687.275151 716.677172 678.381233 C771.152091 597.272427 825.627008 516.163622 880.101926 435.054816 C954.996845 323.542258 1029.891764 212.029700 1104.786683 100.517141 C1009.014151 95.809878 913.119507 93.587294 817.231729 93.852379 C812.140147 93.866455 805.213575 95.755294 805.694561 100.824126 C807.153561 116.199597 806.960300 131.731311 805.119179 147.065718 C804.195330 154.760306 802.724758 162.728191 798.092876 168.941552 C793.460993 175.154912 784.797717 179.003102 777.715883 175.855436 C768.417825 171.722724 767.093674 159.299447 767.136722 149.124412 C767.231809 126.649274 767.326896 104.174136 767.421983 81.698998 C767.459781 72.764696 768.439801 62.135181 776.238402 57.775706 C780.120392 55.605645 784.804918 55.621595 789.251684 55.694255 C959.198455 58.471202 1129.145226 61.248148 1299.091997 64.025094 M1174.912000 99.437397 C1167.596839 99.221974 1159.966887 99.068435 1153.345778 102.185950 C1145.746055 105.764254 1140.696345 113.055637 1136.009956 120.026848 C1011.311031 305.522247 886.612101 491.017641 761.913170 676.513035 C797.415429 680.344266 833.203874 681.520796 868.881106 680.029561 C874.058984 679.813136 879.430399 679.488320 883.994441 677.033370 C889.019210 674.330596 892.398499 669.413930 895.581842 664.678995 C1021.602665 477.234313 1147.623489 289.789632 1273.644314 102.344951 C1240.733542 101.375767 1207.822771 100.406582 1174.912000 99.437398 z"/></svg>